<svg viewBox="0 0 777 508" xmlns="http://www.w3.org/2000/svg"><path d="M.85 37.711C-4.467 5.267 152.38 25.354 152.38 25.354s91.052 228.657 126.94 228.657c35.89 0 18.61-193.895 18.61-193.895s-44.529-11.587-44.529-29.354S297.931.635 297.931.635h130.928c15.691 0 21.935 25.492 21.935 42.487V250.92h35.89s31.946-51.348 57.153-103.514c25.207-52.165 55.828-122.053 55.828-122.053H751.86s27.913.767 24.59 23.945c-4.52 31.53-105.775 181.267-126.94 232.518-15.951 38.624 67.007 90.903 102.35 146.773 22.938 36.26 24.59 78.796 24.59 78.796H595.68l-90.39-105.061s-18.607-7.722-33.23 3.09c-14.625 10.812-15.287 32.444-15.287 32.444v69.527H315.211s-108.332-37.08-200.048-199.301C23.446 145.862 6.167 70.155.85 37.71Z" fill="#ffffff" fill-rule="evenodd" class="fill-4a4a4a"></path></svg>